<svg xmlns="http://www.w3.org/2000/svg" width="16.51" height="21.516" fill="none" viewBox="0 0 16.5103 21.5164"><path stroke="#FFF" stroke-linecap="round" stroke-linejoin="round" stroke-width="1.5" d="m4.11 14.2-.89 6.54L7.82 18c.15-.09.22-.14.3-.16.07-.01.15-.01.22.01.08.01.15.06.3.15l4.58 2.76-.85-6.54m1.14-10.38 1.31.54c.37.16.67.45.82.83.15.37.15.79 0 1.17l-.55 1.3c-.15.38-.15.8 0 1.17l.54 1.31c.08.18.11.38.11.58 0 .2-.04.4-.11.59-.08.18-.19.35-.33.49-.15.14-.32.25-.5.33l-1.31.54c-.37.15-.67.45-.83.82l-.54 1.31c-.16.37-.45.67-.83.82-.37.15-.79.15-1.17 0l-1.3-.55c-.38-.15-.8-.15-1.17 0l-1.31.54c-.37.15-.79.15-1.16 0-.38-.16-.67-.45-.83-.83l-.54-1.31a1.55 1.55 0 0 0-.82-.83l-1.31-.54c-.37-.16-.67-.45-.82-.83-.15-.37-.15-.79 0-1.16l.55-1.31c.15-.37.15-.79 0-1.17L.87 6.34c-.08-.18-.12-.38-.11-.58 0-.2.04-.4.11-.59.08-.18.19-.35.33-.49.15-.14.31-.25.5-.33l1.31-.54c.37-.15.67-.45.83-.82l.54-1.31c.16-.37.45-.67.83-.82.37-.15.79-.15 1.16 0l1.31.55c.37.15.79.15 1.17 0l1.31-.54c.37-.15.79-.15 1.16 0 .38.16.67.46.83.83l.54 1.31h0c.15.37.45.67.82.83Z"/></svg>
