<svg xmlns="http://www.w3.org/2000/svg" width="21.565" height="21.666" fill="none"><path stroke="#FFF" stroke-linejoin="round" stroke-width="1.5" d="M6.19 8.58a1.23 1.23 0 0 1-.11-.26c-.08-.28-.02-.63.15-.86.05-.07.1-.13.22-.24.35-.35.52-.53.64-.7.43-.66.43-1.52 0-2.18-.11-.18-.29-.35-.64-.7l-.19-.2c-.53-.53-.8-.8-1.08-.94-.57-.29-1.24-.29-1.81-.01-.28.15-.55.41-1.08.94l-.16.16c-.53.53-.79.79-1 1.15-.22.4-.39 1.02-.38 1.48 0 .41.07.7.23 1.26.86 3.04 2.48 5.9 4.86 8.29 2.38 2.4 5.24 4.03 8.27 4.9.57.16.85.24 1.26.24.46 0 1.08-.16 1.48-.38.36-.2.63-.47 1.16-.99l.15-.16c.54-.53.8-.8.95-1.08.29-.57.29-1.24 0-1.81-.14-.28-.41-.55-.94-1.08l-.19-.2c-.35-.35-.52-.52-.7-.64-.66-.43-1.52-.43-2.18 0-.18.11-.35.29-.7.63-.12.12-.17.18-.24.22-.24.17-.58.23-.86.15-.08-.02-.14-.05-.27-.11-1.45-.7-2.8-1.66-4-2.86-1.2-1.2-2.15-2.57-2.84-4.02Zm6.68-3.83c.97.19 1.87.67 2.57 1.37.71.71 1.18 1.61 1.37 2.58M12.88.75c2.03.23 3.92 1.14 5.36 2.58a8.999 8.999 0 0 1 2.57 5.37"/></svg>