<svg xmlns="http://www.w3.org/2000/svg" width="19.531" height="21.715" fill="none" viewBox="0 0 19.5308 21.715"><path stroke="#FFF" stroke-linejoin="round" stroke-width="1.5" d="M4.24 18.75h-1.5a2 2 0 0 1-1.99-2.01l.03-14c0-1.1.9-2 2-1.99l14 .03c1.1 0 2 .9 2 2l-.04 14a2 2 0 0 1-2 2l-1.5-.01m-5.5-1.01c-1.65 0-2.99-1.35-2.99-3.01 0-1.65 1.35-2.99 3.01-2.99 1.65 0 2.99 1.35 2.99 3.01 0 1.65-1.35 2.99-3.01 2.99Zm0 0h.02l-3.2 3.19-2.82-2.84 3.03-3.01m2.97 2.66 3.19 3.2 2.83-2.82-3.01-3.03M6.77 4.75l6 .02M4.76 8.25l10 .02"/></svg>
