<svg xmlns="http://www.w3.org/2000/svg" width="17.521" height="21.513" fill="none" viewBox="0 0 17.5209 21.5129"><path stroke="#FFF" stroke-linejoin="round" stroke-width="1.5" d="M12.77 2.76c.93 0 1.4 0 1.78.11 1.04.28 1.84 1.09 2.12 2.12.1.38.1.85.1 1.78l-.02 9.2c-.01 1.68-.01 2.52-.34 3.16-.29.56-.75 1.02-1.31 1.31-.64.32-1.48.32-3.17.32l-6.4-.02c-1.68 0-2.52 0-3.16-.33-.56-.29-1.02-.75-1.3-1.31-.33-.65-.33-1.49-.32-3.17l.02-9.2c0-.93 0-1.39.1-1.77A3.002 3.002 0 0 1 3 2.84c.38-.1.84-.1 1.77-.1M11.18.76c.56 0 .84 0 1.05.11.19.09.34.25.44.44.11.21.11.49.11 1.05l-.01.8c0 .56 0 .84-.11 1.05-.09.19-.25.34-.44.44-.21.11-.49.11-1.05.11l-4.8-.01c-.56-.01-.84-.01-1.05-.12-.19-.09-.34-.25-.44-.43-.11-.22-.11-.5-.11-1.06l.01-.8c0-.56 0-.84.11-1.05.09-.19.25-.34.43-.44.22-.11.5-.11 1.06-.1l4.8.01ZM5.75 13.74l2 2.01 4.51-4.49"/></svg>
