<svg width="31" height="31" viewBox="0 0 31 31" fill="none" xmlns="http://www.w3.org/2000/svg">
<path d="M12.5654 11.3419C12.5638 12.0323 12.003 12.5907 11.3126 12.5892C10.6222 12.5877 10.0638 12.0268 10.0654 11.3364C10.0669 10.6461 10.6278 10.0877 11.3181 10.0892C12.0085 10.0907 12.5669 10.6516 12.5654 11.3419Z" fill="#FF9549"/>
<path d="M20.0487 18.8585C20.0472 19.5489 19.4863 20.1073 18.796 20.1058C18.1056 20.1043 17.5472 19.5434 17.5488 18.853C17.5503 18.1627 18.1112 17.6043 18.8015 17.6058C19.4919 17.6073 20.0503 18.1682 20.0487 18.8585Z" fill="#FF9549"/>
<path d="M12.6504 3.41502C14.0546 2.22369 16.1161 2.22823 17.515 3.42575L18.3667 4.15478C18.9662 4.66794 19.7123 4.97891 20.4988 5.04342L21.6161 5.13507C23.4514 5.2856 24.9059 6.74648 25.0483 8.58246L25.135 9.70018C25.196 10.4869 25.5037 11.2344 26.0142 11.8361L26.7395 12.691C27.9308 14.0952 27.9263 16.1567 26.7288 17.5556L25.9997 18.4073C25.4866 19.0068 25.1756 19.7529 25.1111 20.5393L25.0195 21.6567C24.8689 23.492 23.408 24.9464 21.5721 25.0889L20.4543 25.1756C19.6676 25.2366 18.9201 25.5443 18.3184 26.0548L17.4635 26.7801C16.0593 27.9714 13.9978 27.9669 12.5989 26.7694L11.7472 26.0403C11.1477 25.5272 10.4017 25.2162 9.61518 25.1517L8.49785 25.06C6.66252 24.9095 5.20807 23.4486 5.06564 21.6126L4.97892 20.4949C4.91789 19.7082 4.61021 18.9607 4.0997 18.359L3.37443 17.5041C2.1831 16.0999 2.18765 14.0384 3.38516 12.6395L4.11419 11.7878C4.62736 11.1883 4.93833 10.4422 5.00284 9.65576L5.09448 8.53844C5.24502 6.7031 6.70589 5.24866 8.54187 5.10622L9.65959 5.01951C10.4464 4.95847 11.1938 4.6508 11.7955 4.14028L12.6504 3.41502Z" stroke="#FF9549" stroke-width="1.5"/>
<path d="M11.2986 18.8393L18.8152 11.3559" stroke="#FF9549" stroke-width="1.5" stroke-linecap="round"/>
</svg>
