<svg xmlns="http://www.w3.org/2000/svg" width="17.521" height="21.515" viewBox="0 0 17.5207 21.515" fill="none"><path stroke="#FFF" stroke-linejoin="round" stroke-width="1.5" d="m10.78 1.03-.01 4.13c0 .56 0 .84.11 1.05.09.19.24.34.43.44.22.11.5.11 1.06.11l4.13.01M5.53 20.75c-1.68-.01-2.52-.01-3.16-.34-.56-.29-1.02-.75-1.3-1.31-.33-.64-.33-1.48-.32-3.17l.02-10.4c0-1.68 0-2.52.33-3.16.29-.56.75-1.02 1.32-1.3C3.06.74 3.9.74 5.58.75l5.2.01 5.99 6.01-.02 9.2c-.01 1.68-.01 2.52-.34 3.16-.29.57-.75 1.02-1.31 1.31-.64.33-1.48.32-3.17.32l-6.4-.01Zm.22-6 1.99 2 4.51-4.49"/></svg>