<svg xmlns="http://www.w3.org/2000/svg" width="21.5" height="21.5" fill="none"><path stroke="#FFF" stroke-linejoin="round" stroke-width="1.5" d="M10.74 13.74c-1.66 0-3-1.34-2.99-3 0-1.66 1.34-3 3-2.99a2.996 2.996 0 1 1-.01 5.99Zm6.62.62c.05.3.19.57.4.78l.06.06a1.849 1.849 0 0 1 .53 1.28 1.814 1.814 0 0 1-1.13 1.68c-.22.09-.46.14-.7.14a1.814 1.814 0 0 1-1.28-.54l-.06-.05c-.21-.21-.48-.35-.78-.41-.29-.05-.6-.01-.87.11-.27.11-.5.3-.66.54-.16.25-.25.53-.25.83v.15c0 .48-.2.95-.54 1.29-.34.34-.8.53-1.28.53-.49-.01-.95-.2-1.29-.54-.34-.34-.53-.8-.53-1.29v-.08c0-.3-.1-.59-.28-.84a1.43 1.43 0 0 0-.7-.53 1.45 1.45 0 0 0-.87-.11c-.3.05-.57.19-.78.4l-.06.06a1.849 1.849 0 0 1-1.28.53 1.814 1.814 0 0 1-1.68-1.13 1.86 1.86 0 0 1-.14-.7 1.81 1.81 0 0 1 .54-1.28l.05-.06c.21-.21.35-.48.41-.78.05-.29.01-.6-.11-.87-.11-.27-.3-.5-.54-.66-.25-.16-.53-.25-.83-.25h-.15c-.48 0-.95-.2-1.29-.54-.34-.34-.53-.8-.52-1.28 0-.49.19-.95.53-1.29.34-.34.8-.53 1.29-.53h.08c.3 0 .59-.1.84-.28.24-.17.43-.41.53-.7.13-.27.16-.58.11-.87-.05-.3-.19-.57-.4-.78l-.06-.06a1.849 1.849 0 0 1-.53-1.28 1.814 1.814 0 0 1 1.13-1.68c.22-.09.46-.14.7-.14a1.81 1.81 0 0 1 1.28.54l.06.05c.21.21.48.35.78.41.29.05.6.01.87-.11h.07c.27-.11.5-.3.66-.54.17-.25.25-.53.25-.83l.01-.15c0-.48.19-.95.53-1.29.34-.34.81-.53 1.29-.52a1.809 1.809 0 0 1 1.81 1.82v.08c0 .29.09.58.25.82.16.25.39.44.66.55.27.13.58.16.87.11.3-.05.57-.19.78-.4l.06-.06a1.849 1.849 0 0 1 1.28-.53 1.814 1.814 0 0 1 1.68 1.13c.09.22.14.46.14.7a1.81 1.81 0 0 1-.54 1.28l-.05.06c-.21.21-.35.48-.41.78-.05.29-.01.6.11.87v.07c.11.27.3.5.54.66.25.17.53.25.83.25h.15c.48.01.95.2 1.29.54.34.34.53.8.53 1.29-.01.48-.2.94-.54 1.28-.34.34-.8.53-1.29.53h-.08c-.29 0-.58.09-.82.25-.25.16-.44.39-.55.66-.13.27-.16.58-.11.87Z"/></svg>