<svg xmlns="http://www.w3.org/2000/svg" width="21.519" height="21.525" fill="none"><path stroke="#FFF" stroke-linejoin="round" stroke-width="1.5" d="M10.77 5.76s1.01-5 4.51-5a2.505 2.505 0 0 1 2.5 2.51c0 .66-.27 1.3-.74 1.77-.47.46-1.11.73-1.77.72h-4.5l-4.5-.01a2.505 2.505 0 0 1-2.49-2.51c0-.66.26-1.3.73-1.77.47-.46 1.11-.73 1.77-.72 3.5 0 4.49 5.01 4.49 5.01m0 0-.03 14.99M.76 12.73l20 .05m-.01 4.8c-.01 1.12-.01 1.68-.23 2.1a2 2 0 0 1-.87.88c-.43.21-.99.21-2.11.21l-13.6-.03c-1.12 0-1.68 0-2.11-.22a2 2 0 0 1-.87-.88c-.22-.43-.22-.99-.21-2.11l.01-8.6c.01-1.12.01-1.68.23-2.1a2 2 0 0 1 .87-.88c.43-.21.99-.21 2.11-.21l13.6.03c1.12 0 1.68 0 2.11.22.37.2.68.5.87.88.22.43.22.99.21 2.11l-.01 8.6Z"/></svg>