<svg xmlns="http://www.w3.org/2000/svg" width="20.583" height="20.653" fill="none"><path stroke="#FFF" stroke-linejoin="round" stroke-width="1.5" d="m13.82 1.73-.01 5 5 .02m1.01-6-6.01 5.98m-7.62.84c-.06-.12-.09-.19-.11-.26-.08-.29-.02-.63.15-.87.05-.06.1-.12.22-.23.35-.35.52-.53.64-.7.43-.67.43-1.52 0-2.18-.11-.18-.29-.35-.64-.71l-.19-.19c-.53-.53-.8-.8-1.08-.94-.57-.29-1.24-.29-1.81-.01-.28.15-.55.41-1.08.94l-.16.16c-.53.53-.79.79-1 1.15-.22.4-.39 1.02-.38 1.48 0 .41.07.69.23 1.26.86 3.03 2.48 5.9 4.86 8.29a18.88 18.88 0 0 0 8.27 4.89c.57.17.85.25 1.26.25.46 0 1.08-.16 1.48-.38.36-.2.63-.47 1.16-1l.15-.15c.54-.53.8-.8.95-1.08.29-.57.29-1.24 0-1.81-.14-.29-.41-.55-.94-1.08l-.19-.2c-.35-.35-.52-.53-.7-.64-.66-.43-1.52-.43-2.18-.01-.18.12-.35.29-.7.64-.12.12-.17.17-.24.22-.24.17-.58.23-.86.15-.08-.03-.14-.06-.27-.12a14.66 14.66 0 0 1-6.84-6.87Z"/></svg>