<svg xmlns="http://www.w3.org/2000/svg" width="17.511" height="21.294" fill="none" viewBox="0 0 17.5106 21.2936"><path stroke="#FFF" stroke-linecap="round" stroke-linejoin="round" stroke-width="1.5" d="m5.75 10.17 1.99 2 4.51-4.49m4.49 3.01.02-4.78c0-.8 0-1.2-.13-1.54-.12-.3-.3-.58-.55-.79-.27-.24-.65-.39-1.39-.67L9.33.89C9.12.81 9.02.77 8.91.76a.708.708 0 0 0-.29 0c-.1.01-.21.05-.42.13l-5.36 2c-.75.27-1.13.41-1.4.66-.25.21-.43.48-.55.78-.13.35-.13.75-.13 1.55l-.01 4.78c-.02 4.91 5.33 8.49 7.28 9.63.22.13.33.19.48.23.12.02.3.03.42 0 .16-.03.27-.1.49-.23 1.95-1.13 7.31-4.69 7.32-9.6Z"/></svg>
