<svg xmlns="http://www.w3.org/2000/svg" width="21.5" height="21.5" fill="none"><path stroke="#FFF" stroke-linejoin="round" stroke-width="1.5" d="M10.72 20.74C5.2 20.73.73 16.25.75 10.72.76 5.2 5.24.73 10.77.75c5.52.01 9.99 4.49 9.97 10.02-.01 5.52-4.49 9.99-10.02 9.97Zm6.87-11.48c.1.48.16.99.15 1.5 0 1.49-.47 2.87-1.26 4m-11.49-.03a6.955 6.955 0 0 1-1.25-4 6.995 6.995 0 0 1 7.02-6.98c.42 0 .84.03 1.24.11m3.25 2.39-4.51 4.5m0 1c-.55-.01-1-.45-1-1.01.01-.55.45-1 1.01-.99.55 0 1 .44.99 1 0 .55-.44 1-1 1Z"/></svg>