<svg xmlns="http://www.w3.org/2000/svg" width="21.248" height="21.277" fill="none"><path stroke="#FFF" stroke-linecap="round" stroke-linejoin="round" stroke-width="1.5" d="M18.35 9.38c1.18 1.19 1.78 1.79 2 2.47.19.61.19 1.26-.01 1.86-.22.68-.82 1.28-2.01 2.46l-2.21 2.21c-1.19 1.18-1.79 1.78-2.47 2-.61.19-1.26.19-1.86-.01-.68-.22-1.28-.82-2.46-2.01l-7.65-7.68c-.35-.35-.52-.52-.64-.72-.11-.18-.19-.38-.24-.58-.06-.23-.06-.48-.05-.97l.01-4.47c0-1.12 0-1.68.22-2.11.19-.38.5-.68.87-.87.43-.22.99-.22 2.11-.21l4.48.01c.49 0 .73 0 .96.05.2.05.4.13.58.24.2.13.37.3.72.65l7.65 7.68ZM6.75 6.75h.01m-.01.5c-.28 0-.5-.22-.5-.5s.22-.5.5-.5.5.23.5.5c0 .28-.23.5-.5.5Z"/></svg>