<svg xmlns="http://www.w3.org/2000/svg" width="54.154" height="70.119" fill="none"><defs><clipPath id="a"><path fill="#fff" fill-opacity="0" d="m.154 0 54 .12L54 70.118l-54-.12z"/></clipPath></defs><path fill="none" d="m.154 0 54 .12L54 70.118l-54-.12z"/><g clip-path="url(#a)"><mask id="b" width="54.154" height="70.119" x="0" y="0" mask-type="alpha" maskUnits="userSpaceOnUse"><path fill="#000" fill-rule="evenodd" d="m.15 0 54 .11-.16 70L0 69.99.15 0Z"/></mask><g fill="#FFF" mask="url(#b)"><path d="M53.09 2.85c-.4-.86-1.28-1.47-3.26-1.67C40.71.25 36.44.08 26.94.05 17.43.03 13.29.18 4.03 1.08c-1.99.19-2.87.8-3.28 1.66C.45 3.38.41 4.16.37 5-.16 15.37.08 43.59 1.43 59.48c.16 1.83.24 3.78.51 5.4.4 2.44 1.42 3.14 3.36 3.54 3.39.71 10.06 1.29 21.47 1.32 11.4.02 18.09-.52 21.49-1.22 1.94-.39 2.97-1.08 3.38-3.53.27-1.61.36-3.56.53-5.4 1.41-15.87 1.78-44.09 1.3-54.47-.04-.85-.08-1.62-.38-2.27ZM2.75 6.15c.07-1.27-.13-2.18.9-2.88l15.04 2.74c.52-.29 8-.28 8.23-.28.24 0 7.72.02 8.23.32l14.93-2.69c1.03.69.86 1.62.92 2.9.14 3.21.2 8.19.18 13.98v.1l-11.94.81c-2.97.27-3.32 1.02-3.33 2.38 0 0-.16 9.34-.25 12.62-.12 4.67-.54 11.62-.55 11.85-.04 1.12-.79 1.93-1.86 2.02 0 0-3.81.13-6.41.1h-.12c-2.61.01-6.41-.13-6.41-.13-1.07-.1-1.83-.91-1.86-2.03 0-.23-.39-7.18-.49-11.85-.08-3.28-.19-12.62-.19-12.62-.01-1.36-.36-2.12-3.32-2.4L2.5 20.12c.01-5.79.09-10.77.25-13.97Zm24.02 46.02h.06l5.95-.05c4.64.04 4.18-.36 4.81-4.43.16-1.02 2.36-23.94 2.36-23.94.07-.53.36-.75.78-.8l10.11-1.3c.18-.03.35.12.34.31 0 0-.91 37.93-1.98 42.54-.24 1-.5 1.23-1.36 1.43 0 0-5.1 1.19-21.09 1.17-16.01-.06-21.1-1.27-21.1-1.27-.86-.21-1.12-.43-1.35-1.43-1.06-4.61-1.8-42.54-1.8-42.54-.01-.19.16-.34.35-.32l10.1 1.35c.41.05.71.28.78.81 0 0 2.1 22.92 2.25 23.94.61 4.07.15 4.47 4.79 4.45l5.95.08h.05Z"/><path d="M22.34 56.44a.107.107 0 0 0-.09-.06h-1.63c-.04 0-.07.02-.1.05l-3.39 5c-.02.03 0 .09.05.09h1.58c.04 0 .07-.02.09-.05l.88-1.29c.04-.06.11-.09.18-.09h3.02c.08 0 .15.04.19.1l.87 1.29c.02.03.06.05.09.05h1.58c.05 0 .07-.05.05-.08l-3.37-5.01Zm-.04 2.84h-1.75c-.08 0-.14-.1-.09-.17l.88-1.3c.04-.07.14-.06.18 0l.88 1.3c.04.08-.01.17-.1.17ZM17.08 56.37l-8.11-.02c-.05 0-.07.06-.05.09l.42.63c.04.06.11.09.18.09l2.61.01c.06 0 .11.05.11.11l-.01 4.16c0 .04.03.06.06.06l1.42.01c.04 0 .06-.03.06-.06l.01-4.16c0-.07.05-.12.12-.12l2.61.01c.07 0 .14-.04.18-.1l.42-.62c.04-.04.02-.09-.03-.09ZM35.24 56.41h-1.42c-.03 0-.06.03-.06.06l-.01 3.6c0 .05-.05.07-.09.05l-4.68-3.67a.246.246 0 0 0-.15-.05h-1.4c-.03 0-.06.03-.06.06l-.01 5.02c0 .03.03.06.06.06h1.42c.04 0 .06-.02.06-.06l.01-3.6c0-.05.05-.07.09-.05l4.68 3.67c.04.03.1.05.15.05l1.4.01c.04 0 .06-.03.06-.07l.01-5.02c0-.03-.02-.06-.06-.06ZM45.01 61.52l-3.38-2.8a.078.078 0 0 1 0-.11l3.39-2.11c.03-.01.02-.06-.02-.06h-1.73c-.06 0-.12.01-.17.05l-3.7 2.3c-.04.02-.09-.01-.09-.05v-2.25c0-.03-.02-.06-.06-.06h-1.42c-.03 0-.06.02-.06.06l-.01 5.02c0 .04.03.06.06.06l1.42.01c.03 0 .06-.03.06-.07v-1.37c0-.05.02-.08.06-.1l1.2-.75c.05-.03.1-.02.14.01l2.68 2.22c.06.04.13.07.21.07h1.4c.04-.01.06-.05.02-.07Z"/></g></g></svg>